<?xml version="1.0" encoding="utf-8"?>
<!-- Generator: Adobe Illustrator 26.0.1, SVG Export Plug-In . SVG Version: 6.00 Build 0)  -->
<svg version="1.1" id="Слой_1" xmlns="http://www.w3.org/2000/svg" xmlns:xlink="http://www.w3.org/1999/xlink" x="0px" y="0px"
	 viewBox="0 0 284 284" style="enable-background:new 0 0 284 284;" xml:space="preserve">
<style type="text/css">
	.st0{fill:#236192;}
</style>
<g>
	<g>
		<path class="st0" d="M175,151.75c8.77-8.59,14.23-20.55,14.23-33.8c0-26.14-21.19-47.33-47.33-47.33s-47.33,21.19-47.33,47.33
			c0,13.24,5.45,25.2,14.22,33.79c-14.28,9.69-23.7,25.26-25.58,42.46c-0.38,3.48,2.42,6.51,5.92,6.51h11.9
			c2.97,0,5.41-2.2,5.83-5.14c0.67-4.74,2.31-9.33,4.89-13.52c4.96-8.05,12.76-13.69,21.97-15.87c2.49-0.59,5.04-0.88,7.57-0.93
			c0.21,0,0.41,0.03,0.62,0.03c0.26,0,0.51-0.03,0.77-0.04c16.13,0.33,29.92,11.41,33.67,27.22c0.24,0.99,0.42,1.99,0.57,2.99
			c0.43,2.99,2.85,5.27,5.87,5.27h11.91c3.46,0,6.26-2.95,5.91-6.39c-0.25-2.44-0.65-4.88-1.23-7.33
			C195.81,172.02,186.82,159.76,175,151.75z M141.9,94.29c13.05,0,23.67,10.62,23.67,23.67c0,12.79-10.2,23.22-22.9,23.63
			c-0.24,0-0.49-0.03-0.73-0.03c-0.22,0-0.44,0.04-0.66,0.04c-12.76-0.34-23.04-10.8-23.04-23.64
			C118.23,104.9,128.85,94.29,141.9,94.29z"/>
		<path class="st0" d="M272.17,141.54c0-71.77-58.39-130.16-130.17-130.16S11.83,69.76,11.83,141.54S70.23,271.7,142,271.7
			c21.06,0,40.94-5.06,58.56-13.97c12.1,4.64,26.21,2.42,36.37-6.68l0.01,0.01l0.3-0.3c0.38-0.35,0.77-0.66,1.14-1.03
			c0.28-0.28,0.51-0.6,0.78-0.89l10.76-10.76l-0.04-0.04c0.05-0.05,0.11-0.09,0.16-0.14c10.18-10.18,12.86-25,8.08-37.65
			C267.08,182.6,272.17,162.66,272.17,141.54z M142,248.04c-58.72,0-106.5-47.77-106.5-106.5c0-58.72,47.77-106.5,106.5-106.5
			s106.5,47.77,106.5,106.5C248.5,200.26,200.73,248.04,142,248.04z"/>
	</g>
</g>
</svg>
