<?xml version="1.0" standalone="no"?>
<!DOCTYPE svg PUBLIC "-//W3C//DTD SVG 20010904//EN"
 "http://www.w3.org/TR/2001/REC-SVG-20010904/DTD/svg10.dtd">
<svg version="1.0" xmlns="http://www.w3.org/2000/svg"
 width="128.000000pt" height="128.000000pt" viewBox="0 0 128.000000 128.000000"
 preserveAspectRatio="xMidYMid meet">

<g transform="translate(0.000000,128.000000) scale(0.100000,-0.100000)"
fill="#000000" stroke="none">
<path d="M850 1095 c-63 -64 -79 -75 -100 -70 -21 6 -52 -22 -265 -237 -259
-261 -326 -347 -366 -466 -24 -71 -18 -115 21 -165 30 -38 103 -60 154 -46
125 34 236 119 509 388 189 187 219 221 220 248 2 25 20 51 81 118 l78 86
-108 109 c-69 70 -115 110 -129 110 -12 0 -50 -30 -95 -75z m170 -80 l64 -65
-83 -84 c-70 -72 -81 -88 -72 -104 9 -16 -19 -47 -207 -234 -223 -220 -315
-296 -402 -329 -66 -25 -86 -24 -115 6 -34 33 -32 69 9 151 46 92 115 173 334
396 164 166 187 186 211 182 22 -4 37 6 101 70 41 42 79 76 85 76 6 0 39 -29
75 -65z"/>
<path d="M244 296 c-12 -31 0 -51 31 -51 27 0 30 3 30 30 0 25 -4 30 -28 33
-17 2 -29 -2 -33 -12z"/>
</g>
</svg>
