<?xml version="1.0" standalone="no"?>
<!DOCTYPE svg PUBLIC "-//W3C//DTD SVG 20010904//EN"
 "http://www.w3.org/TR/2001/REC-SVG-20010904/DTD/svg10.dtd">
<svg version="1.0" xmlns="http://www.w3.org/2000/svg"
 width="130.000000pt" height="127.000000pt" viewBox="0 0 130.000000 127.000000"
 preserveAspectRatio="xMidYMid meet">

<g transform="translate(0.000000,127.000000) scale(0.100000,-0.100000)"
fill="#000000" stroke="none">
<path d="M527 1163 c-144 -78 -272 -169 -384 -277 -71 -68 -93 -94 -93 -115 0
-46 48 -256 80 -352 39 -118 134 -315 158 -328 36 -19 232 -41 367 -41 133 0
321 22 358 41 20 11 101 169 141 275 35 93 84 287 92 367 l6 63 -90 85 c-50
48 -129 115 -177 151 -99 74 -276 175 -320 183 -24 4 -53 -7 -138 -52z m206
-19 c145 -73 296 -183 420 -305 66 -66 66 -66 36 -212 -28 -139 -69 -261 -134
-393 l-54 -112 -88 -15 c-181 -33 -375 -31 -555 4 l-58 12 -54 111 c-62 128
-96 225 -131 381 -35 157 -35 161 28 221 77 75 173 153 253 206 83 55 233 138
252 138 7 0 45 -16 85 -36z"/>
<path d="M540 994 c-157 -42 -275 -173 -302 -336 -26 -160 50 -328 190 -417
160 -101 395 -73 521 63 21 22 22 26 7 32 -11 4 -30 -6 -57 -31 -23 -21 -67
-49 -98 -64 -48 -22 -69 -26 -151 -26 -82 0 -103 4 -152 27 -76 35 -153 109
-191 183 -30 56 -32 67 -32 165 0 93 3 112 26 160 56 117 161 197 292 221 102
18 233 -21 314 -94 28 -25 43 -33 53 -27 35 21 -103 118 -205 145 -73 19 -143
18 -215 -1z"/>
<path d="M590 901 c-103 -21 -204 -109 -236 -203 -23 -69 -16 -187 15 -246 68
-133 234 -203 373 -157 69 22 141 74 127 91 -8 9 -21 4 -59 -21 -228 -154
-516 71 -420 327 23 63 85 128 150 157 87 40 221 21 287 -41 15 -14 26 -17 38
-11 15 9 12 13 -17 38 -66 56 -175 84 -258 66z"/>
<path d="M923 681 l-152 -88 151 -87 c83 -48 152 -85 155 -83 2 2 2 81 1 175
l-3 170 -152 -87z"/>
</g>
</svg>
