<svg
  xmlns="http://www.w3.org/2000/svg"
  viewBox="0 0 150 50"
>
  <path 
    fill="#ff1635" 
    d="M0 11.883v26.235L22.93 25z" 
  />
  <g fill="#0055a2">
    <path d="M34.28 24.203c.411-.435.856-.91 1.334-1.423l1.723-1.841c.591-.631 1.17-1.257 1.739-1.88.565-.62 1.096-1.19 1.58-1.702a.534.534 0 00.157-.502c-.04-.203-.223-.407-.535-.407h-1.021a.632.632 0 00-.504.251c-.456.48-.945 1.007-1.467 1.578l-3.155 3.439c-.505.553-.967 1.052-1.378 1.49-.075.074-.116.102-.115.104a1.24 1.24 0 01-.229.014h-.6v-6.302c0-.333-.234-.574-.557-.574h-.862a.536.536 0 00-.557.552v14.674c0 .346.244.597.58.597h.84c.322 0 .556-.242.556-.575v-6.504h.554c.102 0 .158.008.17.002.019.015.059.047.125.111l6.517 6.679c.115.151.245.239.388.267.067.013.137.02.216.02h1.133a.508.508 0 00.514-.405.533.533 0 00-.149-.497l-6.997-7.165" />
    <path d="M50.372 17.865c-.51-.457-1.15-.82-1.898-1.078-.74-.255-1.599-.384-2.55-.384a80.29 80.29 0 00-3.265.067c-.324 0-.557.242-.557.574V31.72c0 .32.233.552.557.552h.862a.536.536 0 00.556-.552v-4.945c.086.003.176.008.27.013.285.016.719.023 1.305.023a8.63 8.63 0 002.367-.32 5.974 5.974 0 002.009-.985 4.844 4.844 0 001.384-1.68c.34-.673.512-1.465.512-2.354 0-.7-.13-1.365-.386-1.976a4.5 4.5 0 00-1.166-1.63m-.423 3.652c0 .628-.113 1.161-.336 1.583a2.863 2.863 0 01-.907 1.035c-.39.273-.845.474-1.354.595-.531.126-1.103.19-1.7.19a53.79 53.79 0 01-1.575-.02v-6.608c.147-.008.31-.015.492-.022.798-.03 2.018-.08 2.978.196.485.141.913.35 1.269.622.346.266.624.605.828 1.007.203.401.305.88.305 1.422"
      transform="translate(.8)"
    />
    <path d="M65.359 16.448h-.93c-.242 0-.45.125-.527.284l-5.989 8.855c-.303.451-.606.905-.907 1.363-.304.458-.592.897-.865 1.318l-.37.578c.004-.293.007-.6.007-.924V17a.536.536 0 00-.557-.552h-.861a.532.532 0 00-.536.552v14.696c0 .332.235.575.557.575h.999c.2 0 .382-.094.527-.284l5.9-8.68 1.79-2.718c.132-.199.256-.391.373-.577a103.724 103.724 0 00-.03 2.662v9.044c0 .32.233.552.557.552h.861a.531.531 0 00.535-.552V17c0-.313-.23-.55-.535-.55"
      transform="translate(.6)"
    />
    <path d="M80.213 16.448H69.598a.535.535 0 00-.555.552v14.696c0 .332.233.575.555.575h.863c.323 0 .558-.242.558-.575v-13.36h7.775v13.382c0 .32.233.552.557.552h.862a.536.536 0 00.556-.552V17.022c0-.332-.233-.574-.556-.574M94.076 18.31l.133-.154a.543.543 0 00.118-.456l-.12-.788a.563.563 0 00-.57-.464h-10.93c-.244 0-.454.151-.567.451l-.188.795a.545.545 0 00.116.462l.207.182h4.887v13.358c0 .332.244.575.58.575h.816c.336 0 .58-.242.58-.575V18.338h4.658l.28-.028M107.382 21.132c-.327-.98-.805-1.838-1.423-2.553a6.806 6.806 0 00-2.242-1.705c-1.667-.797-3.946-.85-5.757-.063a6.564 6.564 0 00-2.26 1.625c-.634.699-1.136 1.557-1.494 2.551-.356.988-.537 2.11-.537 3.338 0 1.148.16 2.228.475 3.212a7.59 7.59 0 001.408 2.598 6.618 6.618 0 002.273 1.734c.887.417 1.905.626 3.023.626.977 0 1.908-.18 2.77-.54a6.196 6.196 0 002.256-1.608c.627-.699 1.12-1.57 1.472-2.587.346-1.01.523-2.18.523-3.48a9.95 9.95 0 00-.487-3.148m-1.512 3.17c0 .96-.116 1.845-.345 2.632-.225.774-.558 1.441-.989 1.986a4.35 4.35 0 01-1.566 1.245c-.617.292-1.33.44-2.122.44-.845 0-1.597-.169-2.231-.5a4.777 4.777 0 01-1.61-1.347 6.155 6.155 0 01-.995-2.006 8.62 8.62 0 01-.345-2.449c0-1.037.14-1.954.418-2.729.274-.766.645-1.413 1.103-1.922.454-.503.99-.89 1.591-1.147a4.936 4.936 0 011.957-.391c.758 0 1.459.155 2.082.46a4.79 4.79 0 011.609 1.277 6.182 6.182 0 011.058 1.963c.255.76.385 1.596.385 2.489" />
  </g>
  <path 
    fill="#ff1635" 
    d="M121.163 16.448H110.55a.536.536 0 00-.557.552v14.696c0 .332.234.575.557.575h.862c.323 0 .557-.242.557-.575v-13.36h7.776v13.382c0 .32.234.552.557.552h.86a.536.536 0 00.558-.552V17.022c0-.332-.234-.574-.557-.574M133.117 17.865c-.509-.457-1.148-.82-1.898-1.078-.74-.255-1.598-.384-2.548-.384-.7 0-1.35.008-1.95.023-.603.015-1.05.03-1.316.044-.324 0-.558.242-.558.574V31.72c0 .32.234.552.558.552h.861a.535.535 0 00.556-.552v-4.945c.086.003.176.008.27.013.285.016.72.023 1.307.023a8.65 8.65 0 002.366-.32 5.981 5.981 0 002.01-.985 4.835 4.835 0 001.382-1.68c.34-.673.512-1.465.512-2.354 0-.697-.129-1.363-.384-1.977a4.51 4.51 0 00-1.168-1.629m-.423 3.652c0 .627-.112 1.16-.335 1.583-.221.421-.526.77-.906 1.036-.39.272-.845.473-1.355.594-.53.126-1.102.19-1.7.19a54.056 54.056 0 01-1.576-.02v-6.608c.147-.007.31-.015.493-.022.797-.03 2.02-.08 2.976.196.488.141.915.35 1.271.624.347.263.624.602.827 1.005.202.401.305.88.305 1.422M149.511 21.132c-.325-.978-.804-1.837-1.421-2.553a6.817 6.817 0 00-2.244-1.705c-.872-.417-1.867-.628-2.958-.628a6.97 6.97 0 00-2.798.565 6.564 6.564 0 00-2.26 1.625c-.635.701-1.138 1.56-1.493 2.551-.357.986-.536 2.108-.536 3.338 0 1.15.159 2.23.474 3.213.318.995.794 1.87 1.409 2.597a6.607 6.607 0 002.27 1.734c.889.417 1.906.626 3.025.626.976 0 1.907-.18 2.77-.54a6.213 6.213 0 002.256-1.608c.626-.7 1.12-1.57 1.471-2.587.348-1.01.523-2.18.523-3.48a9.932 9.932 0 00-.488-3.148M148 24.302c0 .958-.116 1.843-.344 2.632-.226.775-.56 1.443-.99 1.986a4.36 4.36 0 01-1.564 1.245c-.618.292-1.332.44-2.123.44-.846 0-1.597-.169-2.23-.5a4.796 4.796 0 01-1.612-1.347 6.149 6.149 0 01-.993-2.006 8.579 8.579 0 01-.346-2.45c0-1.038.14-1.956.417-2.729.273-.764.644-1.411 1.103-1.921a4.55 4.55 0 011.592-1.148 4.931 4.931 0 011.955-.391c.76 0 1.46.155 2.083.46a4.799 4.799 0 011.61 1.276c.449.549.804 1.21 1.056 1.965.257.757.386 1.594.386 2.489" 
  />
  <path
    fill="#0055a2"
    d="M50.2 35.654l-.225.496C45.986 42.822 38.69 46.962 30.9 46.962c-8.615 0-16.518-5.039-20.133-12.835l-2.739 1.41C12.166 44.323 21.144 50 30.9 50c8.621 0 16.513-4.284 21.198-11.48L150 38.518v-2.866l-99.8.002M49.45 13.045h3.586A25.246 25.246 0 0030.9 0C21.144 0 12.166 5.677 8.03 14.464l2.737 1.41C14.381 8.075 22.284 3.037 30.9 3.037c7.466 0 14.471 3.812 18.552 10.007"
  />
</svg>